# xmcd CD database file
#
# Track frame offsets:
#	187
#	23435
#	44847
#	60407
#	79047
#	102362
#	120720
#	145482
#	163145
#	183382
#
# Disc length: 2691 seconds
#
# Revision: 2
# Processed by: cddbd v1.5PL3 Copyright (c) Steve Scherf et al.
# Submitted via: CDex 1.50beta9
#
DISCID=850a810a
DTITLE=Madison - Diamond Mistrees
DYEAR=1986
DGENRE=Hard Rock
TTITLE0=Lay Down Your Arms
TTITLE1=Run Boy
TTITLE2=Sneaker
TTITLE3=Don't Look Around
TTITLE4=Pictures Return
TTITLE5=Diamond Mistrees
TTITLE6=Don't Go
TTITLE7=Squealer
TTITLE8=Changes
TTITLE9=Turn Me Loose
EXTD=YEAR: 1986
EXTT0=
EXTT1=
EXTT2=
EXTT3=
EXTT4=
EXTT5=
EXTT6=
EXTT7=
EXTT8=
EXTT9=
PLAYORDER=
